<svg xmlns="http://www.w3.org/2000/svg" viewBox="0 0 520 360" role="img" aria-labelledby="title desc">
  <title id="title">Chicken dinner plate</title>
  <desc id="desc">A playful illustrated roast chicken dinner on a plate for Team Chicken Dinner.</desc>
  <defs>
    <filter id="shadow" x="-20%" y="-20%" width="140%" height="150%">
      <feDropShadow dx="0" dy="18" stdDeviation="16" flood-color="#171812" flood-opacity="0.16"/>
    </filter>
    <linearGradient id="chicken" x1="0" x2="1" y1="0" y2="1">
      <stop offset="0" stop-color="#f1b15b"/>
      <stop offset="0.56" stop-color="#c8782b"/>
      <stop offset="1" stop-color="#8f4518"/>
    </linearGradient>
    <linearGradient id="plate" x1="0" x2="1">
      <stop offset="0" stop-color="#fffaf0"/>
      <stop offset="1" stop-color="#ece3d1"/>
    </linearGradient>
  </defs>

  <g filter="url(#shadow)">
    <ellipse cx="260" cy="270" rx="198" ry="52" fill="#d8d1c1"/>
    <ellipse cx="260" cy="254" rx="206" ry="66" fill="url(#plate)" stroke="#c9beaa" stroke-width="5"/>
    <ellipse cx="260" cy="250" rx="148" ry="36" fill="#f8f0df" stroke="#ddd3bf" stroke-width="3"/>
  </g>

  <g transform="rotate(-8 258 180)">
    <path d="M177 191c-13-42 13-91 69-105 64-17 128 11 145 65 16 51-18 95-76 105-68 12-123-19-138-65Z" fill="url(#chicken)" stroke="#7c3514" stroke-width="7"/>
    <path d="M214 173c13-38 56-63 102-54 33 6 57 26 66 53-24-31-68-41-112-30-31 8-53 21-56 31Z" fill="#ffd17a" opacity="0.44"/>
    <path d="M185 151c-34-14-59-38-55-61 4-21 25-31 44-18 18 12 23 35 33 62Z" fill="#c8782b" stroke="#7c3514" stroke-width="7"/>
    <path d="M350 137c28-25 62-33 78-17 15 15 8 39-14 50-19 10-40 2-67-10Z" fill="#c8782b" stroke="#7c3514" stroke-width="7"/>
    <circle cx="171" cy="75" r="20" fill="#fbf3df" stroke="#7c3514" stroke-width="6"/>
    <circle cx="431" cy="114" r="20" fill="#fbf3df" stroke="#7c3514" stroke-width="6"/>
    <path d="M250 216c26 14 73 16 104-2" fill="none" stroke="#7c3514" stroke-width="7" stroke-linecap="round" opacity="0.35"/>
  </g>

  <g>
    <circle cx="128" cy="253" r="23" fill="#2f654f"/>
    <circle cx="150" cy="237" r="14" fill="#2f654f"/>
    <circle cx="389" cy="252" r="23" fill="#2f654f"/>
    <circle cx="412" cy="238" r="14" fill="#2f654f"/>
    <path d="M96 259c32 12 73 11 110-2" fill="none" stroke="#b6252a" stroke-width="10" stroke-linecap="round"/>
    <path d="M321 259c32 12 73 11 110-2" fill="none" stroke="#b6252a" stroke-width="10" stroke-linecap="round"/>
  </g>

  <g transform="translate(309 20) rotate(8)">
    <path d="M0 0h128v70H0z" rx="14" fill="#9f1d27"/>
    <path d="M20 70 35 98 52 70Z" fill="#9f1d27"/>
    <text x="64" y="30" text-anchor="middle" font-family="Arial, Helvetica, sans-serif" font-size="13" font-weight="800" letter-spacing="2.4" fill="#fff6e8">TEAM</text>
    <text x="64" y="55" text-anchor="middle" font-family="Arial, Helvetica, sans-serif" font-size="18" font-weight="900" fill="#fff6e8">CHICKEN</text>
  </g>
</svg>
